HIERARCHY
ROOT pelvis
{
  OFFSET 0 100 0
  CHANNELS 6 Xposition Yposition Zposition Zrotation Xrotation Yrotation
  JOINT pelvis_right_femur
  {
    OFFSET -10.78128 -3.44521 -0.5502486
    CHANNELS 3 Zrotation Xrotation Yrotation
    JOINT right_femur_tibia
    {
      OFFSET -0.8047443 -44.0398 -0.1307829
      CHANNELS 3 Zrotation Xrotation Yrotation
      JOINT right_tibia_foot
      {
        OFFSET 3.006224 -47.83518 -5
        CHANNELS 3 Zrotation Xrotation Yrotation
        End Site
        {
          OFFSET 0 -5 15
        }
      }
    }
  }
  JOINT pelvis_left_femur
  {
    OFFSET 10.78128 -3.44521 -0.5502486
    CHANNELS 3 Zrotation Xrotation Yrotation
    JOINT left_femur_tibia
    {
      OFFSET 0.8047443 -44.0398 -0.1307829
      CHANNELS 3 Zrotation Xrotation Yrotation
      JOINT left_tibia_foot
      {
        OFFSET -4.370144 -48.10324 -4.275266
        CHANNELS 3 Zrotation Xrotation Yrotation
        End Site
        {
          OFFSET 0 -5 15
        }
      }
    }
  }
  JOINT pelvis_spine1
  {
    OFFSET 0 6.468898 -3.129235
    CHANNELS 3 Zrotation Xrotation Yrotation
    JOINT spine1
    {
      OFFSET 0 23.15396 4.99043
      CHANNELS 3 Zrotation Xrotation Yrotation
      JOINT spine2
      {
        OFFSET 0 20.79997 -5.064912
        CHANNELS 3 Zrotation Xrotation Yrotation
        JOINT neck
        {
          OFFSET 0 14.38658 9.616178
          CHANNELS 3 Zrotation Xrotation Yrotation
          End Site
          {
            OFFSET 0 20 0
          }
        }
      }
      JOINT right_manubrium
      {
        OFFSET -5.722621 16.35077 3.967754
        CHANNELS 3 Zrotation Xrotation Yrotation
        JOINT right_clavicle
        {
          OFFSET -13.16364 1.694482 -4.693211
          CHANNELS 3 Zrotation Xrotation Yrotation
          JOINT right_humerus
          {
            OFFSET -28.5034 -0.3100689 -2.792744
            CHANNELS 3 Zrotation Xrotation Yrotation
            JOINT right_radius
            {
              OFFSET -25.15693 0.02248979 -1.271978
              CHANNELS 3 Zrotation Xrotation Yrotation
              End Site
              {
                OFFSET -15 0 0
              }
            }
          }
        }
      }
      JOINT left_manubrium
      {
        OFFSET 5.722621 16.35077 3.967754
        CHANNELS 3 Zrotation Xrotation Yrotation
        JOINT left_clavicle
        {
          OFFSET 13.16364 1.694482 -4.693211
          CHANNELS 3 Zrotation Xrotation Yrotation
          JOINT left_humerus
          {
            OFFSET 29.39168 -1.063119 -2.237045
            CHANNELS 3 Zrotation Xrotation Yrotation
            JOINT left_radius
            {
              OFFSET 24.59957 -0.9528479 0.9047498
              CHANNELS 3 Zrotation Xrotation Yrotation
              End Site
              {
                OFFSET 15 -0 -0
              }
            }
          }
        }
      }
    }
  }
}
MOTION
Frames: 15
Frame Time: 0.0416666666667
-1200.968 95.46069 -357.012 8.296606 7.548589 115.1653 -1.736977 15.01291 -8.016879 -0 27.94187 -0 -11.37639 -10.57985 3.388297 -6.501538 -5.450205 -10.70562 -0 13.19801 -0 -6.077089 -3.32836 15.07448 5.178232 -2.26018 15.70657 2.293569 10.91036 -8.823799 -1.993654 16.87272 1.782472 3.015262 -13.63338 -2.456742 -8.286327 -33.74285 9.353369 88.80205 8.801494 -13.76201 -0 0 30.96948 -14.72706 18.55662 7.672033 -0.7074278 -27.96722 -9.745371 -103.4637 19.90431 46.07871 0 0 -24.85211 -14.20821 -0.7801961 29.43461
-1196.26 95.47682 -361.0211 8.360824 7.477303 114.6742 -1.736977 15.01291 -8.016879 -0 27.94187 -0 -11.37639 -10.57985 3.388297 -6.501538 -5.450205 -10.70562 -0 13.19801 -0 -6.077089 -3.32836 15.07448 5.178232 -2.26018 15.70657 2.293569 10.91036 -8.823799 -1.993654 16.87272 1.782472 3.015262 -13.63338 -2.456742 -8.286327 -33.74285 9.353369 88.80205 8.801494 -13.76201 -0 0 30.96948 -14.72706 18.55662 7.672033 -0.7074278 -27.96722 -9.745371 -103.4637 19.90431 46.07871 0 0 -24.85211 -14.20821 -0.7801961 29.43461
-1191.517 95.49295 -364.9896 8.424413 7.405475 114.1832 -1.736977 15.01291 -8.016879 -0 27.94187 -0 -11.37639 -10.57985 3.388297 -6.501538 -5.450205 -10.70562 -0 13.19801 -0 -6.077089 -3.32836 15.07448 5.178232 -2.26018 15.70657 2.293569 10.91036 -8.823799 -1.993654 16.87272 1.782472 3.015262 -13.63338 -2.456742 -8.286327 -33.74285 9.353369 88.80205 8.801494 -13.76201 -0 0 30.96948 -14.72706 18.55662 7.672033 -0.7074278 -27.96722 -9.745371 -103.4637 19.90431 46.07871 0 0 -24.85211 -14.20821 -0.7801961 29.43461
-1186.741 95.50909 -368.9172 8.487369 7.333108 113.6923 -1.736977 15.01291 -8.016879 -0 27.94187 -0 -11.37639 -10.57985 3.388297 -6.501538 -5.450205 -10.70562 -0 13.19801 -0 -6.077089 -3.32836 15.07448 5.178232 -2.26018 15.70657 2.293569 10.91036 -8.823799 -1.993654 16.87272 1.782472 3.015262 -13.63338 -2.456742 -8.286327 -33.74285 9.353369 88.80205 8.801494 -13.76201 -0 0 30.96948 -14.72706 18.55662 7.672033 -0.7074278 -27.96722 -9.745371 -103.4637 19.90431 46.07871 0 0 -24.85211 -14.20821 -0.7801961 29.43461
-1181.931 95.52522 -372.8037 8.549688 7.26021 113.2017 -1.736977 15.01291 -8.016879 -0 27.94187 -0 -11.37639 -10.57985 3.388297 -6.501538 -5.450205 -10.70562 -0 13.19801 -0 -6.077089 -3.32836 15.07448 5.178232 -2.26018 15.70657 2.293569 10.91036 -8.823799 -1.993654 16.87272 1.782472 3.015262 -13.63338 -2.456742 -8.286327 -33.74285 9.353369 88.80205 8.801494 -13.76201 -0 0 30.96948 -14.72706 18.55662 7.672033 -0.7074278 -27.96722 -9.745371 -103.4637 19.90431 46.07871 0 0 -24.85211 -14.20821 -0.7801961 29.43461
-1177.089 95.54136 -376.6487 8.611365 7.186785 112.7112 -1.736977 15.01291 -8.016879 -0 27.94187 -0 -11.37639 -10.57985 3.388297 -6.501538 -5.450205 -10.70562 -0 13.19801 -0 -6.077089 -3.32836 15.07448 5.178232 -2.26018 15.70657 2.293569 10.91036 -8.823799 -1.993654 16.87272 1.782472 3.015262 -13.63338 -2.456742 -8.286327 -33.74285 9.353369 88.80205 8.801494 -13.76201 -0 0 30.96948 -14.72706 18.55662 7.672033 -0.7074278 -27.96722 -9.745371 -103.4637 19.90431 46.07871 0 0 -24.85211 -14.20821 -0.7801961 29.43461
-1172.213 95.55749 -380.4519 8.672396 7.112839 112.2208 -1.736977 15.01291 -8.016879 -0 27.94187 -0 -11.37639 -10.57985 3.388297 -6.501538 -5.450205 -10.70562 -0 13.19801 -0 -6.077089 -3.32836 15.07448 5.178232 -2.26018 15.70657 2.293569 10.91036 -8.823799 -1.993654 16.87272 1.782472 3.015262 -13.63338 -2.456742 -8.286327 -33.74285 9.353369 88.80205 8.801494 -13.76201 -0 0 30.96948 -14.72706 18.55662 7.672033 -0.7074278 -27.96722 -9.745371 -103.4637 19.90431 46.07871 0 0 -24.85211 -14.20821 -0.7801961 29.43461
-1167.304 95.57362 -384.2132 8.732778 7.038378 111.7306 -1.736977 15.01291 -8.016879 -0 27.94187 -0 -11.37639 -10.57985 3.388297 -6.501538 -5.450205 -10.70562 -0 13.19801 -0 -6.077089 -3.32836 15.07448 5.178232 -2.26018 15.70657 2.293569 10.91036 -8.823799 -1.993654 16.87272 1.782472 3.015262 -13.63338 -2.456742 -8.286327 -33.74285 9.353369 88.80205 8.801494 -13.76201 -0 0 30.96948 -14.72706 18.55662 7.672033 -0.7074278 -27.96722 -9.745371 -103.4637 19.90431 46.07871 0 0 -24.85211 -14.20821 -0.7801961 29.43461
-1162.364 95.58976 -387.9322 8.792506 6.963406 111.2406 -1.736977 15.01291 -8.016879 -0 27.94187 -0 -11.37639 -10.57985 3.388297 -6.501538 -5.450205 -10.70562 -0 13.19801 -0 -6.077089 -3.32836 15.07448 5.178232 -2.26018 15.70657 2.293569 10.91036 -8.823799 -1.993654 16.87272 1.782472 3.015262 -13.63338 -2.456742 -8.286327 -33.74285 9.353369 88.80205 8.801494 -13.76201 -0 0 30.96948 -14.72706 18.55662 7.672033 -0.7074278 -27.96722 -9.745371 -103.4637 19.90431 46.07871 0 0 -24.85211 -14.20821 -0.7801961 29.43461
-1157.392 95.60589 -391.6085 8.851576 6.887931 110.7507 -1.736977 15.01291 -8.016879 -0 27.94187 -0 -11.37639 -10.57985 3.388297 -6.501538 -5.450205 -10.70562 -0 13.19801 -0 -6.077089 -3.32836 15.07448 5.178232 -2.26018 15.70657 2.293569 10.91036 -8.823799 -1.993654 16.87272 1.782472 3.015262 -13.63338 -2.456742 -8.286327 -33.74285 9.353369 88.80205 8.801494 -13.76201 -0 0 30.96948 -14.72706 18.55662 7.672033 -0.7074278 -27.96722 -9.745371 -103.4637 19.90431 46.07871 0 0 -24.85211 -14.20821 -0.7801961 29.43461
-1152.388 95.62202 -395.2421 8.909985 6.811957 110.261 -1.736977 15.01291 -8.016879 -0 27.94187 -0 -11.37639 -10.57985 3.388297 -6.501538 -5.450205 -10.70562 -0 13.19801 -0 -6.077089 -3.32836 15.07448 5.178232 -2.26018 15.70657 2.293569 10.91036 -8.823799 -1.993654 16.87272 1.782472 3.015262 -13.63338 -2.456742 -8.286327 -33.74285 9.353369 88.80205 8.801494 -13.76201 -0 0 30.96948 -14.72706 18.55662 7.672033 -0.7074278 -27.96722 -9.745371 -103.4637 19.90431 46.07871 0 0 -24.85211 -14.20821 -0.7801961 29.43461
-1147.354 95.63816 -398.8325 8.967729 6.73549 109.7714 -1.736977 15.01291 -8.016879 -0 27.94187 -0 -11.37639 -10.57985 3.388297 -6.501538 -5.450205 -10.70562 -0 13.19801 -0 -6.077089 -3.32836 15.07448 5.178232 -2.26018 15.70657 2.293569 10.91036 -8.823799 -1.993654 16.87272 1.782472 3.015262 -13.63338 -2.456742 -8.286327 -33.74285 9.353369 88.80205 8.801494 -13.76201 -0 0 30.96948 -14.72706 18.55662 7.672033 -0.7074278 -27.96722 -9.745371 -103.4637 19.90431 46.07871 0 0 -24.85211 -14.20821 -0.7801961 29.43461
-1142.288 95.65429 -402.3796 9.024803 6.658536 109.282 -1.736977 15.01291 -8.016879 -0 27.94187 -0 -11.37639 -10.57985 3.388297 -6.501538 -5.450205 -10.70562 -0 13.19801 -0 -6.077089 -3.32836 15.07448 5.178232 -2.26018 15.70657 2.293569 10.91036 -8.823799 -1.993654 16.87272 1.782472 3.015262 -13.63338 -2.456742 -8.286327 -33.74285 9.353369 88.80205 8.801494 -13.76201 -0 0 30.96948 -14.72706 18.55662 7.672033 -0.7074278 -27.96722 -9.745371 -103.4637 19.90431 46.07871 0 0 -24.85211 -14.20821 -0.7801961 29.43461
-1137.193 95.67042 -405.883 9.081206 6.581101 108.7928 -1.736977 15.01291 -8.016879 -0 27.94187 -0 -11.37639 -10.57985 3.388297 -6.501538 -5.450205 -10.70562 -0 13.19801 -0 -6.077089 -3.32836 15.07448 5.178232 -2.26018 15.70657 2.293569 10.91036 -8.823799 -1.993654 16.87272 1.782472 3.015262 -13.63338 -2.456742 -8.286327 -33.74285 9.353369 88.80205 8.801494 -13.76201 -0 0 30.96948 -14.72706 18.55662 7.672033 -0.7074278 -27.96722 -9.745371 -103.4637 19.90431 46.07871 0 0 -24.85211 -14.20821 -0.7801961 29.43461
-1132.067 95.68656 -409.3425 9.136931 6.50319 108.3037 -1.736977 15.01291 -8.016879 -0 27.94187 -0 -11.37639 -10.57985 3.388297 -6.501538 -5.450205 -10.70562 -0 13.19801 -0 -6.077089 -3.32836 15.07448 5.178232 -2.26018 15.70657 2.293569 10.91036 -8.823799 -1.993654 16.87272 1.782472 3.015262 -13.63338 -2.456742 -8.286327 -33.74285 9.353369 88.80205 8.801494 -13.76201 -0 0 30.96948 -14.72706 18.55662 7.672033 -0.7074278 -27.96722 -9.745371 -103.4637 19.90431 46.07871 0 0 -24.85211 -14.20821 -0.7801961 29.43461
